{
  "accessors": [
    {
      "bufferView": 2,
      "componentType": 5126,
      "count": 14423,
      "max": [
        48.10918045043945,
        68.51659393310547,
        34.390987396240234
      ],
      "min": [
        -50.935176849365234,
        -30.517574310302734,
        -64.87861633300781
      ],
      "type": "VEC3"
    },
    {
      "bufferView": 2,
      "byteOffset": 173076,
      "componentType": 5126,
      "count": 14423,
      "max": [
        0.9999626874923706,
        0.9997391104698181,
        0.9996053576469421
      ],
      "min": [
        -0.999876081943512,
        -0.999985933303833,
        -0.9999750852584839
      ],
      "type": "VEC3"
    },
    {
      "bufferView": 3,
      "componentType": 5126,
      "count": 14423,
      "max": [
        0.9992055892944336,
        0.999906599521637,
        0.9552614092826843,
        1.0
      ],
      "min": [
        -0.9963623881340027,
        -0.9897354245185852,
        -0.9556758999824524,
        1.0
      ],
      "type": "VEC4"
    },
    {
      "bufferView": 1,
      "componentType": 5126,
      "count": 14423,
      "max": [
        0.945701003074646,
        0.979062020778656
      ],
      "min": [
        0.0004670000053010881,
        0.07144699990749359
      ],
      "type": "VEC2"
    },
    {
      "bufferView": 0,
      "componentType": 5125,
      "count": 75210,
      "type": "SCALAR"
    }
  ],
  "asset": {
    "extras": {
      "author": "jeffduvernay (https://sketchfab.com/jeffduvernay)",
      "license": "CC-BY-4.0 (http://creativecommons.org/licenses/by/4.0/)",
      "source": "https://sketchfab.com/3d-models/nerf-ball-d8c0f8015e044371a83a3ccf7e5e8566",
      "title": "Nerf Ball"
    },
    "generator": "Sketchfab-14.49.0",
    "version": "2.0"
  },
  "bufferViews": [
    {
      "buffer": 0,
      "byteLength": 300840,
      "name": "floatBufferViews",
      "target": 34963
    },
    {
      "buffer": 0,
      "byteLength": 115384,
      "byteOffset": 300840,
      "byteStride": 8,
      "name": "floatBufferViews",
      "target": 34962
    },
    {
      "buffer": 0,
      "byteLength": 346152,
      "byteOffset": 416224,
      "byteStride": 12,
      "name": "floatBufferViews",
      "target": 34962
    },
    {
      "buffer": 0,
      "byteLength": 230768,
      "byteOffset": 762376,
      "byteStride": 16,
      "name": "floatBufferViews",
      "target": 34962
    }
  ],
  "buffers": [
    {
      "byteLength": 993144,
      "uri": "scene.bin"
    }
  ],
  "images": [
    {
      "uri": "textures/Default_OBJ_baseColor.jpeg"
    },
    {
      "uri": "textures/Default_OBJ_normal.png"
    }
  ],
  "materials": [
    {
      "doubleSided": true,
      "name": "Default_OBJ",
      "normalTexture": {
        "index": 1
      },
      "pbrMetallicRoughness": {
        "baseColorTexture": {
          "index": 0
        },
        "metallicFactor": 0.0
      }
    }
  ],
  "meshes": [
    {
      "name": "Object_0",
      "primitives": [
        {
          "attributes": {
            "NORMAL": 1,
            "POSITION": 0,
            "TANGENT": 2,
            "TEXCOORD_0": 3
          },
          "indices": 4,
          "material": 0,
          "mode": 4
        }
      ]
    }
  ],
  "nodes": [
    {
      "children": [
        1
      ],
      "matrix": [
        0.06597015261650085,
        0.02435274235904239,
        -0.9975243806838989,
        0.0,
        -0.9357993006706238,
        -0.3454483449459076,
        -0.07032153010368355,
        0.0,
        -0.3463056683540344,
        0.9381217360496521,
        9.728256779021385e-17,
        0.0,
        0.0,
        0.0,
        0.0,
        1.0
      ],
      "name": "Sketchfab_model"
    },
    {
      "children": [
        2
      ],
      "name": "Geomagic2.OBJ.cleaner.materialmerger.gles"
    },
    {
      "mesh": 0,
      "name": "Object_2"
    }
  ],
  "samplers": [
    {
      "magFilter": 9729,
      "minFilter": 9987,
      "wrapS": 10497,
      "wrapT": 10497
    }
  ],
  "scene": 0,
  "scenes": [
    {
      "name": "Sketchfab_Scene",
      "nodes": [
        0
      ]
    }
  ],
  "textures": [
    {
      "sampler": 0,
      "source": 0
    },
    {
      "sampler": 0,
      "source": 1
    }
  ]
}
