{
  "accessors": [
    {
      "bufferView": 2,
      "componentType": 5126,
      "count": 65532,
      "max": [
        1.0076472759246826,
        4.866629123687744,
        1.0066958665847778
      ],
      "min": [
        -1.0095769166946411,
        -4.864321231842041,
        -1.0081034898757935
      ],
      "type": "VEC3"
    },
    {
      "bufferView": 2,
      "byteOffset": 786384,
      "componentType": 5126,
      "count": 65532,
      "max": [
        0.9999994039535522,
        1.0,
        0.9999933242797852
      ],
      "min": [
        -0.9999929666519165,
        -0.9999996423721313,
        -0.9999985694885254
      ],
      "type": "VEC3"
    },
    {
      "bufferView": 1,
      "componentType": 5126,
      "count": 65532,
      "max": [
        1.0,
        0.8844728469848633
      ],
      "min": [
        0.0,
        0.0
      ],
      "type": "VEC2"
    },
    {
      "bufferView": 0,
      "componentType": 5125,
      "count": 278490,
      "type": "SCALAR"
    },
    {
      "bufferView": 2,
      "byteOffset": 1572768,
      "componentType": 5126,
      "count": 65532,
      "max": [
        0.21006695926189423,
        4.851649284362793,
        1.0100818872451782
      ],
      "min": [
        -1.008752465248108,
        -4.8558807373046875,
        -0.942328691482544
      ],
      "type": "VEC3"
    },
    {
      "bufferView": 2,
      "byteOffset": 2359152,
      "componentType": 5126,
      "count": 65532,
      "max": [
        0.4486636519432068,
        0.28873953223228455,
        0.9999921321868896
      ],
      "min": [
        -0.9999992847442627,
        -0.3404427468776703,
        -0.9999806880950928
      ],
      "type": "VEC3"
    },
    {
      "bufferView": 1,
      "byteOffset": 524256,
      "componentType": 5126,
      "count": 65532,
      "max": [
        0.7503646612167358,
        0.7505755424499512
      ],
      "min": [
        0.0002567768096923828,
        0.01581716537475586
      ],
      "type": "VEC2"
    },
    {
      "bufferView": 0,
      "byteOffset": 1113960,
      "componentType": 5125,
      "count": 296106,
      "type": "SCALAR"
    },
    {
      "bufferView": 2,
      "byteOffset": 3145536,
      "componentType": 5126,
      "count": 65532,
      "max": [
        1.0071027278900146,
        4.778303146362305,
        1.0100818872451782
      ],
      "min": [
        -0.7992367148399353,
        -4.856176853179932,
        -0.20644208788871765
      ],
      "type": "VEC3"
    },
    {
      "bufferView": 2,
      "byteOffset": 3931920,
      "componentType": 5126,
      "count": 65532,
      "max": [
        0.9999915361404419,
        0.3418726623058319,
        0.9999983310699463
      ],
      "min": [
        -0.9998687505722046,
        -0.5656789541244507,
        -0.4490926265716553
      ],
      "type": "VEC3"
    },
    {
      "bufferView": 1,
      "byteOffset": 1048512,
      "componentType": 5126,
      "count": 65532,
      "max": [
        0.7505567669868469,
        0.750569224357605
      ],
      "min": [
        0.0,
        0.005929470062255859
      ],
      "type": "VEC2"
    },
    {
      "bufferView": 0,
      "byteOffset": 2298384,
      "componentType": 5125,
      "count": 293910,
      "type": "SCALAR"
    },
    {
      "bufferView": 2,
      "byteOffset": 4718304,
      "componentType": 5126,
      "count": 65532,
      "max": [
        1.0085877180099487,
        4.824206352233887,
        0.6677427291870117
      ],
      "min": [
        -0.03562387451529503,
        -4.8632330894470215,
        -1.0071252584457397
      ],
      "type": "VEC3"
    },
    {
      "bufferView": 2,
      "byteOffset": 5504688,
      "componentType": 5126,
      "count": 65532,
      "max": [
        1.0,
        0.304523229598999,
        0.9997762441635132
      ],
      "min": [
        -0.7753614783287048,
        -0.3846370279788971,
        -0.9999994039535522
      ],
      "type": "VEC3"
    },
    {
      "bufferView": 1,
      "byteOffset": 1572768,
      "componentType": 5126,
      "count": 65532,
      "max": [
        0.7505685687065125,
        0.7505912780761719
      ],
      "min": [
        0.0004852414131164551,
        6.961822509765625e-05
      ],
      "type": "VEC2"
    },
    {
      "bufferView": 0,
      "byteOffset": 3474024,
      "componentType": 5125,
      "count": 256389,
      "type": "SCALAR"
    },
    {
      "bufferView": 2,
      "byteOffset": 6291072,
      "componentType": 5126,
      "count": 65533,
      "max": [
        1.0076472759246826,
        4.866629123687744,
        1.009236216545105
      ],
      "min": [
        -1.0095769166946411,
        -4.864321231842041,
        -1.0081034898757935
      ],
      "type": "VEC3"
    },
    {
      "bufferView": 2,
      "byteOffset": 7077468,
      "componentType": 5126,
      "count": 65533,
      "max": [
        0.9999910593032837,
        0.9973860383033752,
        0.9999933242797852
      ],
      "min": [
        -0.999998927116394,
        -0.9930499196052551,
        -0.9999994039535522
      ],
      "type": "VEC3"
    },
    {
      "bufferView": 1,
      "byteOffset": 2097024,
      "componentType": 5126,
      "count": 65533,
      "max": [
        0.7505850791931152,
        0.7505934238433838
      ],
      "min": [
        0.0,
        0.0
      ],
      "type": "VEC2"
    },
    {
      "bufferView": 0,
      "byteOffset": 4499580,
      "componentType": 5125,
      "count": 132396,
      "type": "SCALAR"
    },
    {
      "bufferView": 2,
      "byteOffset": 7863864,
      "componentType": 5126,
      "count": 33184,
      "max": [
        1.0064433813095093,
        4.866629123687744,
        1.0094199180603027
      ],
      "min": [
        -1.0082359313964844,
        -4.864321231842041,
        -1.0081034898757935
      ],
      "type": "VEC3"
    },
    {
      "bufferView": 2,
      "byteOffset": 8262072,
      "componentType": 5126,
      "count": 33184,
      "max": [
        0.9999915361404419,
        0.9996680021286011,
        0.9999949932098389
      ],
      "min": [
        -0.9999992847442627,
        -0.9969209432601929,
        -0.9999974966049194
      ],
      "type": "VEC3"
    },
    {
      "bufferView": 1,
      "byteOffset": 2621288,
      "componentType": 5126,
      "count": 33184,
      "max": [
        0.9086259603500366,
        0.7505956888198853
      ],
      "min": [
        0.0,
        0.0
      ],
      "type": "VEC2"
    },
    {
      "bufferView": 0,
      "byteOffset": 5029164,
      "componentType": 5125,
      "count": 51435,
      "type": "SCALAR"
    },
    {
      "bufferView": 2,
      "byteOffset": 8660280,
      "componentType": 5126,
      "count": 6405,
      "max": [
        0.9980640411376953,
        1.1457902193069458,
        0.9980640411376953
      ],
      "min": [
        -0.9980640411376953,
        -0.9990007877349854,
        -0.9980639815330505
      ],
      "type": "VEC3"
    },
    {
      "bufferView": 2,
      "byteOffset": 8737140,
      "componentType": 5126,
      "count": 6405,
      "max": [
        0.9998008012771606,
        1.0,
        0.9998008012771606
      ],
      "min": [
        -0.9998008012771606,
        -1.0,
        -0.9998008012771606
      ],
      "type": "VEC3"
    },
    {
      "bufferView": 1,
      "byteOffset": 2886760,
      "componentType": 5126,
      "count": 6405,
      "max": [
        1.0000001192092896,
        1.0000001192092896
      ],
      "min": [
        0.0,
        0.010000006295740604
      ],
      "type": "VEC2"
    },
    {
      "bufferView": 0,
      "byteOffset": 5234904,
      "componentType": 5125,
      "count": 34560,
      "type": "SCALAR"
    }
  ],
  "asset": {
    "extras": {
      "author": "jacobnich683 (https://sketchfab.com/jacobnich683)",
      "license": "CC-BY-4.0 (http://creativecommons.org/licenses/by/4.0/)",
      "source": "https://sketchfab.com/3d-models/nerf-dartbullet-62845af2f0e641f7b8c93018bfc35c12",
      "title": "Nerf Dart/Bullet"
    },
    "generator": "Sketchfab-12.66.0",
    "version": "2.0"
  },
  "bufferViews": [
    {
      "buffer": 0,
      "byteLength": 5373144,
      "name": "floatBufferViews",
      "target": 34963
    },
    {
      "buffer": 0,
      "byteLength": 2938000,
      "byteOffset": 5373144,
      "byteStride": 8,
      "name": "floatBufferViews",
      "target": 34962
    },
    {
      "buffer": 0,
      "byteLength": 8814000,
      "byteOffset": 8311144,
      "byteStride": 12,
      "name": "floatBufferViews",
      "target": 34962
    }
  ],
  "buffers": [
    {
      "byteLength": 17125144,
      "uri": "scene.bin"
    }
  ],
  "materials": [
    {
      "doubleSided": true,
      "name": "Material.001",
      "pbrMetallicRoughness": {
        "baseColorFactor": [
          0.0359703,
          0.110748,
          0.270321,
          1.0
        ],
        "metallicFactor": 0.0,
        "roughnessFactor": 0.710909
      }
    },
    {
      "doubleSided": true,
      "name": "Material.002",
      "pbrMetallicRoughness": {
        "baseColorFactor": [
          0.508881,
          0.0843762,
          0.0382044,
          1.0
        ],
        "metallicFactor": 0.0,
        "roughnessFactor": 0.0781818
      }
    }
  ],
  "meshes": [
    {
      "name": "Object_0",
      "primitives": [
        {
          "attributes": {
            "NORMAL": 1,
            "POSITION": 0,
            "TEXCOORD_0": 2
          },
          "indices": 3,
          "material": 0,
          "mode": 4
        }
      ]
    },
    {
      "name": "Object_1",
      "primitives": [
        {
          "attributes": {
            "NORMAL": 5,
            "POSITION": 4,
            "TEXCOORD_0": 6
          },
          "indices": 7,
          "material": 0,
          "mode": 4
        }
      ]
    },
    {
      "name": "Object_2",
      "primitives": [
        {
          "attributes": {
            "NORMAL": 9,
            "POSITION": 8,
            "TEXCOORD_0": 10
          },
          "indices": 11,
          "material": 0,
          "mode": 4
        }
      ]
    },
    {
      "name": "Object_3",
      "primitives": [
        {
          "attributes": {
            "NORMAL": 13,
            "POSITION": 12,
            "TEXCOORD_0": 14
          },
          "indices": 15,
          "material": 0,
          "mode": 4
        }
      ]
    },
    {
      "name": "Object_4",
      "primitives": [
        {
          "attributes": {
            "NORMAL": 17,
            "POSITION": 16,
            "TEXCOORD_0": 18
          },
          "indices": 19,
          "material": 0,
          "mode": 4
        }
      ]
    },
    {
      "name": "Object_5",
      "primitives": [
        {
          "attributes": {
            "NORMAL": 21,
            "POSITION": 20,
            "TEXCOORD_0": 22
          },
          "indices": 23,
          "material": 0,
          "mode": 4
        }
      ]
    },
    {
      "name": "Object_6",
      "primitives": [
        {
          "attributes": {
            "NORMAL": 25,
            "POSITION": 24,
            "TEXCOORD_0": 26
          },
          "indices": 27,
          "material": 1,
          "mode": 4
        }
      ]
    }
  ],
  "nodes": [
    {
      "children": [
        1
      ],
      "matrix": [
        1.0,
        0.0,
        0.0,
        0.0,
        0.0,
        2.220446049250313e-16,
        -1.0,
        0.0,
        0.0,
        1.0,
        2.220446049250313e-16,
        0.0,
        0.0,
        -3.469446951953614e-18,
        -7.703719777548943e-34,
        1.0
      ],
      "name": "Sketchfab_model"
    },
    {
      "children": [
        2
      ],
      "name": "root"
    },
    {
      "children": [
        3
      ],
      "matrix": [
        1.0,
        0.0,
        0.0,
        0.0,
        0.0,
        2.220446049250313e-16,
        1.0,
        0.0,
        0.0,
        -1.0,
        2.220446049250313e-16,
        0.0,
        0.0,
        0.0,
        0.0,
        1.0
      ],
      "name": "GLTF_SceneRootNode"
    },
    {
      "children": [
        4,
        5,
        6,
        7,
        8,
        9,
        10
      ],
      "matrix": [
        0.006393746938556433,
        0.0,
        -0.0,
        0.0,
        -0.0,
        0.0,
        -0.006393746938556433,
        0.0,
        0.0,
        0.006393746938556433,
        0.0,
        0.0,
        0.0,
        0.03028808906674385,
        -1.2838188409805298,
        1.0
      ],
      "name": "Cylinder_2"
    },
    {
      "mesh": 0,
      "name": "Object_4"
    },
    {
      "mesh": 1,
      "name": "Object_5"
    },
    {
      "mesh": 2,
      "name": "Object_6"
    },
    {
      "mesh": 3,
      "name": "Object_7"
    },
    {
      "mesh": 4,
      "name": "Object_8"
    },
    {
      "mesh": 5,
      "name": "Object_9"
    },
    {
      "children": [
        11
      ],
      "matrix": [
        0.9167101979255676,
        0.0,
        0.0,
        0.0,
        0.0,
        0.6991074085235596,
        0.0,
        0.0,
        0.0,
        0.0,
        0.9167101979255676,
        0.0,
        0.0,
        5.5115814208984375,
        0.0,
        1.0
      ],
      "name": "Cylinder.001_1"
    },
    {
      "mesh": 6,
      "name": "Object_11"
    }
  ],
  "scene": 0,
  "scenes": [
    {
      "name": "Sketchfab_Scene",
      "nodes": [
        0
      ]
    }
  ]
}
